<?xml version="1.0" standalone="no"?>
<!DOCTYPE svg PUBLIC "-//W3C//DTD SVG 20010904//EN"
 "http://www.w3.org/TR/2001/REC-SVG-20010904/DTD/svg10.dtd">
<svg version="1.0" xmlns="http://www.w3.org/2000/svg"
 width="122.000000pt" height="122.000000pt" viewBox="0 0 122.000000 122.000000"
 preserveAspectRatio="xMidYMid meet">
<metadata>
Created by potrace 1.11, written by Peter Selinger 2001-2013
</metadata>
<g transform="translate(0.000000,122.000000) scale(0.100000,-0.100000)"
fill="#000000" stroke="none">
<path d="M485 1101 c-49 -32 -176 -115 -282 -184 l-192 -126 0 -172 1 -171
146 -96 c81 -52 203 -132 272 -177 69 -45 130 -84 137 -88 8 -5 11 36 11 165
l-1 173 -136 88 c-75 49 -143 92 -151 97 -8 5 -12 11 -10 13 3 2 61 39 129 83
184 117 168 90 168 287 0 92 0 167 -1 167 -1 0 -41 -27 -91 -59z"/>
<path d="M650 988 l0 -173 145 -95 c80 -52 145 -97 145 -101 0 -3 -65 -48
-145 -100 l-145 -94 0 -172 0 -173 28 18 c30 19 215 140 412 269 l125 82 0
171 0 170 -125 82 c-69 45 -192 127 -275 181 -82 54 -153 101 -157 103 -5 3
-8 -73 -8 -168z"/>
</g>
</svg>
